# xmcd
#
# Track frame offsets: 
#        150
#        17802
#        47517
#        64089
#        83944
#        97248
#        125495
#        144636
#        158474
#        187372
#
# Disc length: 2685 seconds
#
# Revision: 0
# Processed by: cddbd v1.5.2PL0 Copyright (c) Steve Scherf et al.
# Submitted via: ExactAudioCopy v1.3
#
DISCID=8b0a7b0a
DTITLE=Blues Cousins - KGB Blues
DYEAR=2011
DGENRE=Electric Blues
TTITLE0=KGB Blues
TTITLE1=The Brother
TTITLE2=I'm Mad
TTITLE3=Love Matters
TTITLE4=What Would You Say
TTITLE5=Rock'n'Roll (version 1)
TTITLE6=You Don't Know
TTITLE7=The Blues That Rocks
TTITLE8=The Chocolate
TTITLE9=Rock'n'Roll (version 2)
EXTD=
EXTT0=
EXTT1=
EXTT2=
EXTT3=
EXTT4=
EXTT5=
EXTT6=
EXTT7=
EXTT8=
EXTT9=
PLAYORDER=
